# xmcd
#
# Track frame offsets: 
#        150
#        31337
#        51288
#        80106
#        89265
#        113147
#        144619
#        172026
#        186524
#        217300
#        238802
#
# Disc length: 3464 seconds
#
# Revision: 1
# Processed by: cddbd v1.5.2PL0 Copyright (c) Steve Scherf et al.
# Submitted via: ExactAudioCopy v0.99pb5
#
DISCID=a90d860b
DTITLE=Romano Sclavis Texier - 3+3
DYEAR=2011
DGENRE=Jazz
TTITLE0=Vents Qui Parlent
TTITLE1=Ravages
TTITLE2=Idoma
TTITLE3=Nous Trois
TTITLE4=Seeds
TTITLE5=Rituel A Trois
TTITLE6=Bayou
TTITLE7=Mohican
TTITLE8=Moins Qu'Une Ombre
TTITLE9=Griot Joe
TTITLE10=Valse A L'Ame
EXTD=YEAR: 2011
EXTT0=
EXTT1=
EXTT2=
EXTT3=
EXTT4=
EXTT5=
EXTT6=
EXTT7=
EXTT8=
EXTT9=
EXTT10=
PLAYORDER=
